PathFileType	4	(X/Y/Z)	pose_F01_0-77.trc
DataRate	CameraRate	NumFrames	NumMarkers	Units	OrigDataRate	OrigDataStartFrame	OrigNumFrames
30	30	6	21	m	30	9	77
Frame#	Time	CHip			RHip			RKnee			RAnkle			RBigToe			RSmallToe			RHeel			LHip			LKnee			LAnkle			LBigToe			LSmallToe			LHeel			Neck			Nose			RShoulder			RElbow			RWrist			LShoulder			LElbow			LWrist			
		X1	Y1	Z1	X2	Y2	Z2	X3	Y3	Z3	X4	Y4	Z4	X5	Y5	Z5	X6	Y6	Z6	X7	Y7	Z7	X8	Y8	Z8	X9	Y9	Z9	X10	Y10	Z10	X11	Y11	Z11	X12	Y12	Z12	X13	Y13	Z13	X14	Y14	Z14	X15	Y15	Z15	X16	Y16	Z16	X17	Y17	Z17	X18	Y18	Z18	X19	Y19	Z19	X20	Y20	Z20	X21	Y21	Z21	
9	0.3	-0.24824307489553513	1.8763168837224953	-0.4912189071818881	-0.25188620828159336	1.87474363180481	-0.4335703794956377	-0.23882542695207348	1.7222141800594448	-0.4184813729010785	-0.27179124947410155	1.5771510493787302	-0.3259394413571668	-0.23961509771734682	1.5360709227556244	-0.3627077905283086	-0.24560141149805856	1.5390429892440864	-0.32245843538497654	-0.28229251402266314	1.5730550723792156	-0.3184594491545324	-0.24170857773952292	1.8805029953805539	-0.5507677571679259	-0.23842102012621194	1.7256151326917821	-0.5623348463782254	-0.2712217676204496	1.5958166815467503	-0.5193723011268655	-0.24367130318685626	1.5654725676606136	-0.5856318756645366	-0.2494376662182778	1.5727171453508697	-0.6017571537623003	-0.27198747004910384	1.582102357953932	-0.508148131351594	-0.25358541524094336	2.048398895892587	-0.5002806265569955	-0.22530676993747498	2.1238150931639432	-0.5328128034368064	-0.2554835911944839	2.049158159841725	-0.42418259937968106	-0.19880550597234609	2.076581402687784	-0.4450900457716865	-0.1534565260437665	2.1210746255393556	-0.526496636136068	-0.2432188313208689	2.045561375752284	-0.587577081683364	-0.2186811069323722	1.9788361513803578	-0.6566619717948318	-0.1652752154222985	2.013555387579379	-0.6955058988865018
10	0.3333333333333333	-0.24531669119441307	1.8804019014142115	-0.49940820138273995	-0.2511576709397867	1.8778673221757076	-0.4396497547734553	-0.2410034474502411	1.720483700526608	-0.4161008917628284	-0.2715234374877172	1.5754064226752074	-0.3261860115332625	-0.23926186345108352	1.5363786369635808	-0.36334513952551517	-0.2453564781979738	1.5378243247197578	-0.3225331214158219	-0.2818751197302363	1.570159677444585	-0.31887992020042044	-0.23653055052222702	1.882095024440554	-0.5609780697957245	-0.23863667658567422	1.7266491944451363	-0.562210234839297	-0.27234960471678105	1.5964229201798226	-0.522591146710175	-0.2416912683358313	1.5661929155344274	-0.5878488377276931	-0.247752151615225	1.571907621400367	-0.6033953763635356	-0.27198747004910384	1.582102357953932	-0.508148131351594	-0.2524998884610106	2.051138856691473	-0.5060281464554318	-0.22324738911516348	2.1277053815917153	-0.5361103657421505	-0.2554297187164808	2.0519908876232615	-0.42547881809016874	-0.19980116621039876	2.0761813736864156	-0.43985369888154213	-0.15213213843203377	2.1315135370297473	-0.5345842323716021	-0.24123006576178746	2.0470411870740577	-0.5902527077826419	-0.21956500711660967	1.9787112126344872	-0.6598222551081159	-0.16636844222854427	2.0094680465033226	-0.6981145753562652
11	0.36666666666666664	-0.24610433224765235	1.884508485817727	-0.5032178341113722	-0.25195408370403444	1.8818929165654619	-0.44366869638556505	-0.2428389611100449	1.7247355308703713	-0.4146639804098872	-0.27351233835440164	1.5788132814513836	-0.32448250582013766	-0.24121396895375233	1.5366022705281008	-0.3612353550195887	-0.24744407000196572	1.5383952466588022	-0.320358809786143	-0.2817866787392041	1.572366202759419	-0.31917691012240523	-0.24019740464818573	1.8873889358148548	-0.5657467751713113	-0.24106845971742236	1.727387095730858	-0.5641263927509217	-0.27217939506717526	1.5951616802841015	-0.5228477865775223	-0.24203359539001404	1.5629916297353534	-0.5913601449808323	-0.2470232101406219	1.5682289482886729	-0.6037048884444923	-0.27198747004910384	1.582102357953932	-0.508148131351594	-0.24837924441832068	2.052586516727554	-0.5186254485995176	-0.22410348151691842	2.1288551363478665	-0.5391533170926457	-0.2545492808720782	2.0532399146293865	-0.43080273250100504	-0.19802548396077072	2.0749175957865402	-0.44219679511387777	-0.15192844885526016	2.1376696615734128	-0.5363999981943103	-0.24186217672817314	2.0494681218905058	-0.5933882705560076	-0.22053269099058923	1.9803217460666904	-0.6632416680239582	-0.17332921840044732	2.000913681679887	-0.6908563528136262
12	0.4	-0.24478437187736163	1.883987065978983	-0.5087559830694562	-0.2527075974821816	1.8814823009739035	-0.4470602845930246	-0.2474765737537751	1.7243199103297602	-0.4138563251785	-0.2715727526022492	1.580770113665646	-0.32711915783664663	-0.23948714527044776	1.5376540023497252	-0.36336500954836254	-0.24732918369315737	1.5403849223483612	-0.3209312807976286	-0.2803037101070641	1.5743109942213243	-0.3212937836290964	-0.23463885914726199	1.8870371101956551	-0.5758356078780686	-0.24310246371157662	1.72971820012558	-0.5623043657215006	-0.27211132953225553	1.5948053938591704	-0.5228629297499467	-0.24142323508338082	1.5657205642703234	-0.5965762811305569	-0.24566013508896087	1.569411336763974	-0.605119391338163	-0.27198747004910384	1.582102357953932	-0.508148131351594	-0.24547503670288812	2.0528239532193266	-0.5260329702260866	-0.22314436212238867	2.130289707906682	-0.5449157800654427	-0.25652563211939877	2.0535445292208307	-0.437158855956236	-0.1971754602741718	2.0727066425603273	-0.44694770497967057	-0.1520691279741974	2.1358489777199305	-0.5356213451685886	-0.24145464283352389	2.0532730384527498	-0.6019882270139459	-0.22455333220125437	1.9803639913977689	-0.6670654164828131	-0.18225405654358517	1.999887264179938	-0.6815821666725942
13	0.43333333333333335	-0.23956094335193792	1.885473518121556	-0.518804793876135	-0.24950808432697372	1.8821733837411765	-0.45460732212230137	-0.2506613874545194	1.7260064435098676	-0.4150197768993065	-0.2745696256682474	1.5809658946740717	-0.3282866054771485	-0.2413482544056894	1.5371753372187003	-0.36121289752264385	-0.24919060192178552	1.540009363688602	-0.3188184972898391	-0.2805274714857497	1.5757516773056124	-0.32106849862548875	-0.23132574201481437	1.8884978156015482	-0.5835697031104203	-0.2408022220452013	1.731097679444448	-0.5648920611274622	-0.27218594289815873	1.5950465508684712	-0.5228384397840876	-0.2426208293891274	1.5659533042668496	-0.5910759690270871	-0.24737978014469453	1.5728499857813552	-0.603952881531153	-0.27198747004910384	1.582102357953932	-0.508148131351594	-0.24545524828141888	2.052898377176447	-0.5262991907059296	-0.22402762942047122	2.1327360967689137	-0.5484132580794618	-0.25555826902974615	2.0549060167457402	-0.4424246543757254	-0.19327399492962075	2.0743726669567346	-0.4519605164923389	-0.14253020287760715	2.1395554795054355	-0.5493863811884949	-0.24225988578231655	2.05551645867534	-0.6049308078137263	-0.22688176581834538	1.9761736030087698	-0.6641371144889139	-0.19305334728785123	2.0032514068639675	-0.671032703866158
14	0.4666666666666667	-0.2393948582533057	1.8847048001068325	-0.5273136881214213	-0.24767950531557575	1.881327618708428	-0.46541179972085045	-0.25280587600828736	1.7261498432676534	-0.421868668870861	-0.2728148212111335	1.578814912718848	-0.3298078909473255	-0.23737354709056738	1.536807279943606	-0.3654451883282726	-0.24550539616203895	1.5383950716790933	-0.322525090962308	-0.28220658492500034	1.574831204863555	-0.3191041383666891	-0.23227772997115093	1.886539878085116	-0.5864873445403092	-0.24249022941004234	1.727885695696092	-0.5669913994480468	-0.27217260434380436	1.5950520545851503	-0.5228395271075793	-0.24276031008222412	1.566367778855261	-0.5911139257602153	-0.24778504436926346	1.5719247788179498	-0.6034554552537775	-0.27198747004910384	1.582102357953932	-0.508148131351594	-0.24638231432634491	2.05428116355668	-0.5298854285156809	-0.2248732510804782	2.13401922618207	-0.5513620274326242	-0.2528146156303586	2.054211093659943	-0.44992809899703395	-0.18747376135787108	2.072023878667704	-0.4659411315938818	-0.1394908176272306	2.1391483823891844	-0.5560431874531356	-0.24234648164311695	2.0553652305306396	-0.6049511167777083	-0.23119988107550013	1.9766794133968761	-0.660158336125038	-0.19924992122624957	2.0159396866998436	-0.6663261600466737
